<svg version="1" xmlns="http://www.w3.org/2000/svg" width="933.333" height="933.333" viewBox="0 0 700.000000 700.000000"><path d="M290.1 155.1c-5.7 3.8-12.4 8.6-14.9 10.7-2.6 2-5.8 4.6-7.2 5.7-5.4 4.3-26.9 26.4-32.2 33.1-13 16.4-22.9 33.7-29.7 51.7-3.7 9.9-8.7 29.4-9.7 37.7-.3 3-.8 6.4-1 7.5-.6 3.1-.5 23.4.1 29 3.1 26.2 15.6 46.2 35.1 55.9 11.5 5.8 32.2 8.1 44.4 5 25.9-6.6 43.5-29.6 43.3-56.6-.2-13.5-4.7-23.5-19.3-42.2-17.6-22.5-21.3-30-21.4-43.6 0-6.8.5-9.6 2.4-14 6.1-14.2 20-29.8 41.3-46.2 4.2-3.3 7.7-6.6 7.7-7.2 0-2.2-24.6-32.9-26.6-33.2-1.1-.2-6.3 2.6-12.3 6.7zM471.5 155.2c-8.2 5.5-11.9 8.3-23.9 18.1-9.8 7.9-27.1 26.3-36.3 38.7-26.2 35.2-40.2 84-34.5 121 4.2 27.9 16 45.6 36.4 54.9 10.2 4.6 26.9 6.7 38.6 4.9 7.6-1.2 19.8-6.6 25.9-11.4 20.4-16.1 27.3-46.8 15.4-68.8-3.7-7-3.9-7.2-11.1-16.5-12-15.4-16.2-21.6-19.6-28.8-4.1-8.6-5.3-18.3-3.4-26.3 3.3-13.7 17.2-31 39-48.4 4.7-3.7 9.3-7.4 10.3-8.2.9-.7 1.7-1.7 1.7-2.1 0-.7-11.5-16-22.5-30.1-1.6-1.9-3.5-3.2-4.8-3.2-1.2 0-6.2 2.8-11.2 6.2zM119.3 430.8c-2.8.4-2.9 1.2-.3 4 1.1 1.2 2 2.4 2 2.7 0 2.8 26.3 30.9 36.5 39 2.8 2.2 5.2 4.3 5.5 4.6.8.9 18.9 13.9 19.4 13.9.3 0 2.5 1.3 4.9 2.9 7.1 4.9 26.4 14.6 38.6 19.6 18.5 7.6 41.6 14.3 59.6 17.5 3.3.5 6.9 1.2 8 1.4 1.1.2 4.5.7 7.5 1.1 3 .4 6.2.9 7.1 1 5.5 1.1 25.4 1.9 42.9 1.9 18.1 0 41.5-1 43-1.9.3-.2 3-.6 6-1 9.4-1 31.9-5.6 43-8.7 5.8-1.6 11-3.1 11.5-3.2.6-.2 1.7-.6 2.5-.9.8-.3 6-2.2 11.5-4.2s15.4-6.3 22.1-9.5c14.9-7.2 36.2-19.9 37.2-22.3.2-.4.8-.7 1.4-.7 1.5 0 18.4-13.9 26.9-22.1 14.3-13.8 30.1-33.5 28-34.8-.8-.5-12.2-.6-16.7-.2-.6.1-2.2 1-3.5 2.2-2.3 2-12.2 9.1-16.4 11.6-2.1 1.3-7.7 4-16.2 8-11.8 5.3-38.3 13-59.3 17.2-16.2 3.2-44.2 7.3-58.5 8.6-3.3.3-7.9.7-10.2 1-2.3.2-7.7.7-12 1-4.3.2-11.4.7-15.8 1.1-16.4 1.1-49.3.6-66-1.2-2.7-.2-7-.6-9.5-.8-10.9-.9-18.7-1.7-21-2.1-1.4-.3-5-.7-8-1-3-.3-8-1-11-1.5s-8.6-1.4-12.5-2c-9-1.3-10.4-1.5-26.5-5.1-37-8-66.2-20.2-82.5-34.3-1.6-1.4-3.4-2.6-4-2.7-2.9-.3-13.3-.4-15.2-.1z"/></svg>